<svg width="44" height="41" viewBox="0 0 44 41" fill="none" xmlns="http://www.w3.org/2000/svg">
<g filter="url(#filter0_d)">
<rect x="4" y="12" width="36" height="21" rx="10" fill="#F0D45A"/>
</g>
<g filter="url(#filter1_d)">
<path d="M13.7031 6.3125L15.4785 2.46875H17.4004L14.5996 7.90625V11H12.8125V7.90625L10.0117 2.46875H11.9395L13.7031 6.3125ZM17.418 7.77148C17.418 7.14258 17.5391 6.58203 17.7812 6.08984C18.0234 5.59766 18.3711 5.2168 18.8242 4.94727C19.2812 4.67773 19.8105 4.54297 20.4121 4.54297C21.2676 4.54297 21.9648 4.80469 22.5039 5.32812C23.0469 5.85156 23.3496 6.5625 23.4121 7.46094L23.4238 7.89453C23.4238 8.86719 23.1523 9.64844 22.6094 10.2383C22.0664 10.8242 21.3379 11.1172 20.4238 11.1172C19.5098 11.1172 18.7793 10.8242 18.2324 10.2383C17.6895 9.65234 17.418 8.85547 17.418 7.84766V7.77148ZM19.1113 7.89453C19.1113 8.49609 19.2246 8.95703 19.4512 9.27734C19.6777 9.59375 20.002 9.75195 20.4238 9.75195C20.834 9.75195 21.1543 9.5957 21.3848 9.2832C21.6152 8.9668 21.7305 8.46289 21.7305 7.77148C21.7305 7.18164 21.6152 6.72461 21.3848 6.40039C21.1543 6.07617 20.8301 5.91406 20.4121 5.91406C19.998 5.91406 19.6777 6.07617 19.4512 6.40039C19.2246 6.7207 19.1113 7.21875 19.1113 7.89453ZM28.2637 10.3555C27.8457 10.8633 27.2676 11.1172 26.5293 11.1172C25.8496 11.1172 25.3301 10.9219 24.9707 10.5312C24.6152 10.1406 24.4336 9.56836 24.4258 8.81445V4.66016H26.1191V8.75586C26.1191 9.41602 26.4199 9.74609 27.0215 9.74609C27.5957 9.74609 27.9902 9.54688 28.2051 9.14844V4.66016H29.9043V11H28.3105L28.2637 10.3555Z" fill="#F0D45A"/>
</g>
<g filter="url(#filter2_d)">
<path d="M15.1836 19.8926H12.5703V27H10.8125V19.8926H8.23438V18.4688H15.1836V19.8926ZM19.4902 26.3555C19.0723 26.8633 18.4941 27.1172 17.7559 27.1172C17.0762 27.1172 16.5566 26.9219 16.1973 26.5312C15.8418 26.1406 15.6602 25.5684 15.6523 24.8145V20.6602H17.3457V24.7559C17.3457 25.416 17.6465 25.7461 18.248 25.7461C18.8223 25.7461 19.2168 25.5469 19.4316 25.1484V20.6602H21.1309V27H19.5371L19.4902 26.3555ZM28.1211 23.8887C28.1211 24.9043 27.9043 25.6973 27.4707 26.2676C27.0371 26.834 26.4316 27.1172 25.6543 27.1172C24.9668 27.1172 24.418 26.8535 24.0078 26.3262L23.9316 27H22.4082V18H24.1016V21.2285C24.4922 20.7715 25.0059 20.543 25.6426 20.543C26.416 20.543 27.0215 20.8281 27.459 21.3984C27.9004 21.9648 28.1211 22.7637 28.1211 23.7949V23.8887ZM26.4277 23.7656C26.4277 23.125 26.3262 22.6582 26.123 22.3652C25.9199 22.0684 25.6172 21.9199 25.2148 21.9199C24.6758 21.9199 24.3047 22.1406 24.1016 22.582V25.084C24.3086 25.5293 24.6836 25.752 25.2266 25.752C25.7734 25.752 26.1328 25.4824 26.3047 24.9434C26.3867 24.6855 26.4277 24.293 26.4277 23.7656ZM32.0879 27.1172C31.1582 27.1172 30.4004 26.832 29.8145 26.2617C29.2324 25.6914 28.9414 24.9316 28.9414 23.9824V23.8184C28.9414 23.1816 29.0645 22.6133 29.3105 22.1133C29.5566 21.6094 29.9043 21.2227 30.3535 20.9531C30.8066 20.6797 31.3223 20.543 31.9004 20.543C32.7676 20.543 33.4492 20.8164 33.9453 21.3633C34.4453 21.9102 34.6953 22.6855 34.6953 23.6895V24.3809H30.6582C30.7129 24.7949 30.877 25.127 31.1504 25.377C31.4277 25.627 31.7773 25.752 32.1992 25.752C32.8516 25.752 33.3613 25.5156 33.7285 25.043L34.5605 25.9746C34.3066 26.334 33.9629 26.6152 33.5293 26.8184C33.0957 27.0176 32.6152 27.1172 32.0879 27.1172ZM31.8945 21.9141C31.5586 21.9141 31.2852 22.0273 31.0742 22.2539C30.8672 22.4805 30.7344 22.8047 30.6758 23.2266H33.0312V23.0918C33.0234 22.7168 32.9219 22.4277 32.7266 22.2246C32.5312 22.0176 32.2539 21.9141 31.8945 21.9141Z" fill="#084F93"/>
</g>
<defs>
<filter id="filter0_d" x="0" y="12" width="44" height="29" filterUnits="userSpaceOnUse" color-interpolation-filters="sRGB">
<feFlood flood-opacity="0" result="BackgroundImageFix"/>
<feColorMatrix in="SourceAlpha" type="matrix" values="0 0 0 0 0 0 0 0 0 0 0 0 0 0 0 0 0 0 127 0"/>
<feOffset dy="4"/>
<feGaussianBlur stdDeviation="2"/>
<feColorMatrix type="matrix" values="0 0 0 0 0.941176 0 0 0 0 0.831373 0 0 0 0 0.352941 0 0 0 0.3 0"/>
<feBlend mode="normal" in2="BackgroundImageFix" result="effect1_dropShadow"/>
<feBlend mode="normal" in="SourceGraphic" in2="effect1_dropShadow" result="shape"/>
</filter>
<filter id="filter1_d" x="6.01172" y="2.46875" width="27.8926" height="16.6484" filterUnits="userSpaceOnUse" color-interpolation-filters="sRGB">
<feFlood flood-opacity="0" result="BackgroundImageFix"/>
<feColorMatrix in="SourceAlpha" type="matrix" values="0 0 0 0 0 0 0 0 0 0 0 0 0 0 0 0 0 0 127 0"/>
<feOffset dy="4"/>
<feGaussianBlur stdDeviation="2"/>
<feColorMatrix type="matrix" values="0 0 0 0 0 0 0 0 0 0 0 0 0 0 0 0 0 0 0.25 0"/>
<feBlend mode="normal" in2="BackgroundImageFix" result="effect1_dropShadow"/>
<feBlend mode="normal" in="SourceGraphic" in2="effect1_dropShadow" result="shape"/>
</filter>
<filter id="filter2_d" x="4.23438" y="18" width="34.4609" height="17.1172" filterUnits="userSpaceOnUse" color-interpolation-filters="sRGB">
<feFlood flood-opacity="0" result="BackgroundImageFix"/>
<feColorMatrix in="SourceAlpha" type="matrix" values="0 0 0 0 0 0 0 0 0 0 0 0 0 0 0 0 0 0 127 0"/>
<feOffset dy="4"/>
<feGaussianBlur stdDeviation="2"/>
<feColorMatrix type="matrix" values="0 0 0 0 0 0 0 0 0 0 0 0 0 0 0 0 0 0 0.25 0"/>
<feBlend mode="normal" in2="BackgroundImageFix" result="effect1_dropShadow"/>
<feBlend mode="normal" in="SourceGraphic" in2="effect1_dropShadow" result="shape"/>
</filter>
</defs>
</svg>
